<svg width="13" height="13" viewBox="0 0 13 13" fill="none" xmlns="http://www.w3.org/2000/svg">
<path d="M8.30375 5.68425C8.17873 5.68425 8.05652 5.72132 7.95256 5.79078C7.84861 5.86024 7.76759 5.95897 7.71975 6.07447C7.6719 6.18998 7.65938 6.31708 7.68377 6.4397C7.70816 6.56232 7.76837 6.67495 7.85677 6.76336C7.94518 6.85176 8.05781 6.91196 8.18043 6.93635C8.30305 6.96074 8.43015 6.94823 8.54566 6.90038C8.66116 6.85254 8.75989 6.77152 8.82935 6.66756C8.8988 6.56361 8.93588 6.4414 8.93588 6.31637C8.93588 6.14873 8.86928 5.98794 8.75073 5.8694C8.63219 5.75085 8.4714 5.68425 8.30375 5.68425ZM4.78292 6.31637C4.78292 6.19133 4.74583 6.06909 4.67635 5.96513C4.60687 5.86117 4.50811 5.78014 4.39257 5.73232C4.27704 5.68449 4.14991 5.672 4.02727 5.69644C3.90464 5.72087 3.79201 5.78113 3.70362 5.86959C3.61524 5.95805 3.55508 6.07073 3.53075 6.19339C3.50642 6.31604 3.51902 6.44316 3.56694 6.55865C3.61487 6.67415 3.69598 6.77284 3.8 6.84223C3.90402 6.91162 4.02629 6.94861 4.15134 6.9485C4.31889 6.94836 4.47954 6.88169 4.59797 6.76316C4.7164 6.64463 4.78292 6.48393 4.78292 6.31637ZM7.57954 8.07137C7.40718 8.25674 7.19851 8.40465 6.96652 8.50591C6.73454 8.60717 6.4842 8.65961 6.23108 8.65996C5.97796 8.66032 5.72747 8.60859 5.4952 8.50798C5.26293 8.40737 5.05385 8.26005 4.88096 8.07517C4.79074 7.96333 4.65979 7.89191 4.51692 7.87662C4.37404 7.86133 4.23095 7.90343 4.11911 7.99365C4.00727 8.08386 3.93585 8.21481 3.92056 8.35769C3.90527 8.50056 3.94737 8.64366 4.03759 8.7555C4.31191 9.06607 4.64912 9.31477 5.02687 9.48512C5.40461 9.65546 5.81425 9.74356 6.22863 9.74356C6.643 9.74356 7.05265 9.65546 7.43039 9.48512C7.80813 9.31477 8.14535 9.06607 8.41967 8.7555C8.50631 8.64376 8.54583 8.50258 8.52979 8.36209C8.51374 8.22161 8.44339 8.09298 8.33378 8.00366C8.22417 7.91434 8.08397 7.87143 7.94315 7.88408C7.80232 7.89673 7.67202 7.96395 7.58009 8.07137H7.57954ZM6.22917 0C4.99716 0 3.79281 0.365334 2.76843 1.0498C1.74405 1.73427 0.945641 2.70714 0.47417 3.84537C0.00269903 4.9836 -0.120659 6.23608 0.119694 7.44442C0.360048 8.65276 0.953319 9.76269 1.82448 10.6339C2.69565 11.505 3.80558 12.0983 5.01392 12.3386C6.22226 12.579 7.47474 12.4556 8.61297 11.9842C9.7512 11.5127 10.7241 10.7143 11.4085 9.68991C12.093 8.66553 12.4583 7.46118 12.4583 6.22917C12.4565 4.57766 11.7996 2.99433 10.6318 1.82654C9.46401 0.658748 7.88068 0.00186376 6.22917 0ZM6.22917 11.375C5.21142 11.375 4.21653 11.0732 3.3703 10.5078C2.52407 9.94234 1.86452 9.13867 1.47504 8.19839C1.08556 7.25811 0.983659 6.22346 1.18221 5.22526C1.38077 4.22707 1.87086 3.31017 2.59052 2.59051C3.31017 1.87086 4.22707 1.38076 5.22527 1.18221C6.22346 0.983656 7.25812 1.08556 8.19839 1.47504C9.13867 1.86451 9.94234 2.52407 10.5078 3.3703C11.0732 4.21652 11.375 5.21142 11.375 6.22917C11.3736 7.59349 10.831 8.90152 9.86624 9.86624C8.90152 10.831 7.59349 11.3736 6.22917 11.375Z" fill="#8E8E8E"/>
</svg>
